<?xml version="1.0" encoding="utf-8"?>
<!-- Generator: Adobe Illustrator 17.0.0, SVG Export Plug-In . SVG Version: 6.00 Build 0)  -->
<!DOCTYPE svg PUBLIC "-//W3C//DTD SVG 1.1//EN" "http://www.w3.org/Graphics/SVG/1.1/DTD/svg11.dtd">
<svg version="1.1" id="Ebene_1" xmlns="http://www.w3.org/2000/svg" xmlns:xlink="http://www.w3.org/1999/xlink" x="0px" y="0px"
	 width="580px" height="215px" viewBox="22.5 3.5 580 215" enable-background="new 22.5 3.5 580 215" xml:space="preserve">
<g>
	<path fill="#6F6F6E" d="M54.11,51.215h-7.82v32.177H31.19V6.253h15.099v31.52h7.82l17.634-31.52h17.192L67.227,43.5l24.465,39.893
		H73.068L54.11,51.215z"/>
	<path fill="#6F6F6E" d="M145.601,51.986h13.664v31.406h-50.69V6.253h15.096v63.697h21.93V51.986z"/>
	<path fill="#6F6F6E" d="M221.195,66.311h-23.03l-5.291,17.081h-15.096l24.904-77.14h15.099l24.794,77.14h-15.867L221.195,66.311z
		 M201.69,54.19h16.531l-7.823-25.786h-0.992L201.69,54.19z"/>
	<path fill="#6F6F6E" d="M275.5,37.772h-0.553l0.661,9.144v36.476h-14.325V6.253h13.225l26.665,47.166h0.553l-0.992-9.255V6.253
		h14.328v77.14h-13.225L275.5,37.772z"/>
	<path fill="#6F6F6E" d="M368.701,43.171h26.336v34.823c-2.499,2.278-5.748,4.006-9.751,5.181
		c-4.006,1.172-8.101,1.761-12.286,1.761c-4.926,0-9.536-0.843-13.832-2.535c-4.299-1.689-8.026-4.242-11.186-7.659
		c-3.16-3.414-5.659-7.638-7.494-12.672c-1.835-5.031-2.753-10.926-2.753-17.688c0-7.124,1.103-13.186,3.303-18.181
		c2.206-4.995,5.052-9.091,8.544-12.289c3.486-3.196,7.402-5.524,11.736-6.995s8.63-2.206,12.893-2.206
		c4.409,0,8.08,0.35,11.019,1.049c2.939,0.697,5.62,1.596,8.044,2.699V31.27h-12.122V19.038c-0.589-0.146-1.175-0.293-1.761-0.442
		c-1.471-0.293-3.088-0.439-4.849-0.439c-3.013,0-5.805,0.514-8.376,1.542c-2.574,1.028-4.795,2.628-6.666,4.792
		c-1.877,2.17-3.327,4.944-4.352,8.322c-1.031,3.378-1.546,7.42-1.546,12.122c0,4.188,0.514,7.934,1.546,11.24
		c1.025,3.306,2.457,6.098,4.296,8.376c1.835,2.278,4.021,4.003,6.556,5.178c2.535,1.178,5.273,1.764,8.212,1.764
		c1.91,0,3.653-0.221,5.234-0.661c1.578-0.442,2.66-0.882,3.252-1.324V54.19h-13.996V43.171z"/>
	<path fill="#B1B1B1" d="M42.834,203.889c2.427,0,4.663-0.293,6.723-0.882c2.054-0.586,3.838-1.432,5.345-2.535
		c1.504-1.1,2.681-2.46,3.524-4.077c0.846-1.614,1.267-3.453,1.267-5.509c0-4.039-1.596-7.219-4.792-9.533
		c-3.196-2.314-7.99-3.471-14.382-3.471c-0.807,0-1.746,0.018-2.81,0.057c-1.064,0.036-2.075,0.093-3.031,0.164
		c-1.1,0.075-2.242,0.111-3.414,0.111v-40.335h39.89v13.446h-27.55V166.2c0.586,0,1.175-0.036,1.764-0.108
		c0.514,0,1.01-0.018,1.489-0.057c0.478-0.036,0.897-0.054,1.267-0.054c3.671,0,7.088,0.532,10.247,1.596
		c3.157,1.067,5.913,2.663,8.266,4.795c2.35,2.131,4.17,4.72,5.456,7.769s1.928,6.409,1.928,10.083c0,4.335-0.81,8.137-2.424,11.404
		c-1.617,3.27-3.82,6.006-6.612,8.212c-2.792,2.203-6.026,3.874-9.697,5.013c-3.677,1.139-7.605,1.707-11.79,1.707
		c-1.62,0-3.345-0.164-5.181-0.496c-1.838-0.329-3.638-0.732-5.402-1.211s-3.396-1.01-4.903-1.599
		c-1.507-0.586-2.774-1.136-3.802-1.653l4.627-11.458c1.25,0.735,3.181,1.542,5.787,2.424
		C37.232,203.45,39.97,203.889,42.834,203.889z"/>
	<path fill="#6F6F6E" d="M97.491,138.65c3.088-0.586,6.484-1.046,10.194-1.375c3.71-0.332,7.402-0.496,11.078-0.496
		c3.817,0,7.659,0.314,11.515,0.936c3.856,0.625,7.327,1.874,10.415,3.749c3.085,1.871,5.599,4.481,7.545,7.823
		c1.949,3.342,2.924,7.698,2.924,13.057c0,4.702-0.849,8.726-2.535,12.068c-1.692,3.342-3.934,6.098-6.723,8.266
		c-2.795,2.167-5.97,3.746-9.533,4.738c-3.563,0.992-7.255,1.486-11.075,1.486c-0.368,0-0.954,0-1.761,0
		c-0.813,0-1.656-0.015-2.535-0.054c-0.885-0.036-1.746-0.09-2.592-0.164c-0.846-0.072-1.45-0.146-1.818-0.221v26.557H97.491V138.65
		z M119.974,149.782c-1.471,0-2.867,0.054-4.188,0.164c-1.321,0.111-2.388,0.239-3.196,0.386v25.015
		c0.293,0.075,0.732,0.149,1.324,0.221c0.586,0.075,1.211,0.129,1.871,0.164c0.661,0.039,1.303,0.057,1.928,0.057
		c0.625,0,1.085,0,1.378,0c1.985,0,3.946-0.182,5.895-0.553c1.946-0.365,3.692-1.046,5.234-2.039
		c1.545-0.989,2.771-2.368,3.692-4.131c0.918-1.764,1.378-4.077,1.378-6.941c0-2.424-0.439-4.427-1.324-6.009
		c-0.879-1.578-2.039-2.846-3.468-3.799c-1.435-0.954-3.07-1.617-4.905-1.985C123.755,149.965,121.884,149.782,119.974,149.782z"/>
	<path fill="#6F6F6E" d="M262.75,182.841h-7.823v32.177h-15.096v-77.14h15.096v31.52h7.823l17.634-31.52h17.189l-21.709,37.247
		l24.465,39.893h-18.624L262.75,182.841z"/>
	<path fill="#6F6F6E" d="M326.886,202.897h12.561v-52.896h-10.576v13.335h-12.125v-25.457h60.391v25.457h-12.122v-13.335h-10.469
		v52.896h12.451v12.122h-40.111V202.897z"/>
	<path fill="#6F6F6E" d="M398.708,138.65c1.692-0.29,3.509-0.568,5.459-0.825c1.943-0.257,3.892-0.457,5.838-0.607
		c1.946-0.146,3.838-0.257,5.677-0.329c1.835-0.075,3.527-0.111,5.07-0.111c3.596,0,7.142,0.35,10.63,1.046
		c3.492,0.7,6.612,1.892,9.369,3.581c2.756,1.692,4.959,3.967,6.612,6.834c1.653,2.864,2.481,6.427,2.481,10.687
		c0,3.16-0.317,5.898-0.939,8.212c-0.625,2.314-1.489,4.352-2.589,6.116c-1.103,1.764-2.445,3.288-4.024,4.574
		s-3.288,2.442-5.124,3.471l18.624,33.72h-17.41l-15.539-30.192h-9.037v30.192h-15.099V138.65z M421.851,150.222
		c-1.543,0-3.067,0.039-4.574,0.111c-1.507,0.075-2.663,0.221-3.471,0.442v22.369h5.952c4.185,0,7.602-0.954,10.247-2.867
		c2.643-1.907,3.967-5.067,3.967-9.476c0-3.306-1.031-5.895-3.085-7.769C428.828,151.16,425.818,150.222,421.851,150.222z"/>
	<path fill="#6F6F6E" d="M509.543,137.879h14.325v49.372c0,4.995-0.661,9.312-1.982,12.947c-1.321,3.638-3.181,6.651-5.566,9.037
		c-2.388,2.388-5.234,4.17-8.541,5.345c-3.306,1.175-6.944,1.764-10.908,1.764c-9.554,0-16.624-2.317-21.215-6.944
		s-6.887-11.386-6.887-20.277v-51.243h15.099v48.269c0,5.877,1.064,10.137,3.193,12.782c2.131,2.646,5.473,3.967,10.029,3.967
		c4.409,0,7.584-1.414,9.533-4.242c1.946-2.828,2.921-6.998,2.921-12.507V137.879z"/>
	<path fill="#6F6F6E" d="M585.667,173.915l0.55-12.011h-0.664l-12.34,20.166h-2.646l-12.893-20.166h-0.55l0.661,10.797v42.317
		h-14.328v-77.14h15.317l13.225,21.38h0.442l13.111-21.38h15.21v77.14h-15.096V173.915z"/>
	<g>
		<g>
			<path fill="#B1B1B1" d="M203.785,204.765c1.507-0.221,2.977-0.511,4.409-0.882c1.432-0.365,2.717-0.732,3.856-1.1
				s2.039-0.735,2.699-1.103l3.856,11.901c-3.085,1.253-6.281,2.167-9.584,2.756c-3.306,0.586-6.612,0.882-9.919,0.882
				c-3.895,0-7.677-0.535-11.353-1.599c-3.671-1.064-6.923-2.681-9.751-4.849c-2.828-2.164-5.106-4.828-6.834-7.987
				c-1.722-3.16-2.589-6.834-2.589-11.022c0-3.453,0.571-6.502,1.71-9.144c1.139-2.646,2.643-4.849,4.517-6.612
				s4.021-3.085,6.448-3.967c2.421-0.882,4.92-1.324,7.491-1.324h2.535l-19.395-22.148v-10.029h44.96v12.122h-27.879l18.513,22.617
				v7.907h-6.17c-2.646,0-5.106,0.185-7.384,0.55c-2.275,0.365-4.224,0.986-5.841,1.865c-1.614,0.879-2.882,2.066-3.799,3.563
				c-0.921,1.501-1.381,3.345-1.381,5.539c0,1.758,0.407,3.384,1.214,4.882c0.807,1.501,1.928,2.816,3.36,3.949
				c1.435,1.133,3.163,2.012,5.181,2.634c2.021,0.622,4.242,0.933,6.666,0.933C200.793,205.097,202.282,204.986,203.785,204.765z"/>
		</g>
	</g>
	<g>
		<rect x="430.553" y="70.556" fill="#B1B1B1" width="167.977" height="12.244"/>
	</g>
</g>
</svg>
